<svg id="Capa_1" data-name="Capa 1" xmlns="http://www.w3.org/2000/svg" viewBox="0 0 646.47 716.94"><defs><style>.cls-1{fill:#a1ceff;}</style></defs><path class="cls-1" d="M438.65,554.72c-20.55-8.27-40.89-17.25-54.57-34.72-11.63-14.87-21.31-31.63-29.67-48.63-16.79-34.15-34.67-67.28-61.65-94.81-15.63-15.95-15.62-23,.29-38.2,28-26.74,46.14-59.68,62.47-94.08,7.66-16.15,15.41-32.52,25.46-47.2,12-17.48,29.8-28.44,49.82-35.52a21.85,21.85,0,0,0,4.21-2.05c.51-.31.67-1.17,1.79-3.31-11.12,0-21.48-.16-31.83,0-41.44.76-83,.63-123.68,10.33-36.74,8.76-64.81,29.07-85.12,61.15-12.26,19.37-25.26,38.62-40.49,55.63a73.84,73.84,0,0,1-34.12,21.08c-25,6.65-53.81-11.24-55.85-36.88-3.34-42.2-8.09-85.25,6.79-126.61,17.79-49.43,67-84.8,119.61-85.13,90.41-.55,180.86-1.43,271.25.25,70.91,1.32,131.36,59.19,127.81,127.36-1.91,36.67-19,67-45.39,91.1-20.31,18.59-43.43,34.13-65.51,50.75-19.19,14.46-28,32-20,48.85,4.89,10.34,13.87,20.06,23.38,26.64,26.65,18.45,54.62,34.89,76.69,59.35,36.85,40.82,39.1,99.73,4.5,142.87C537.76,636.7,502.61,654.32,459,654.32q-131.52,0-263,0C121.27,654.15,63.93,596.68,63.66,522c-.06-17.62.13-35.23,0-52.84-.2-23.37,9-41.21,31.11-50.26C116.2,410.12,136.3,415.26,152,431c12.55,12.57,24.66,26.68,32.84,42.28,21.75,41.49,56.44,64.24,100.64,73.25C335.92,556.82,387.2,556.63,438.65,554.72Z"/></svg>