<svg width="206" height="206" viewBox="0 0 206 206" fill="none" xmlns="http://www.w3.org/2000/svg">
<path d="M7.09001 56.6899H0V63.7799H7.09001V56.6899Z" fill="white"/>
<path d="M7.09001 70.8599H0V77.9499H7.09001V70.8599Z" fill="white"/>
<path d="M7.09001 77.9399H0V85.0299H7.09001V77.9399Z" fill="white"/>
<path d="M7.09001 92.1099H0V99.1999H7.09001V92.1099Z" fill="white"/>
<path d="M7.09001 106.28H0V113.37H7.09001V106.28Z" fill="white"/>
<path d="M7.09001 134.62H0V141.71H7.09001V134.62Z" fill="white"/>
<path d="M14.17 56.6899H7.07996V63.7799H14.17V56.6899Z" fill="white"/>
<path d="M14.17 63.7695H7.07996V70.8596H14.17V63.7695Z" fill="white"/>
<path d="M14.17 85.0298H7.07996V92.1198H14.17V85.0298Z" fill="white"/>
<path d="M14.17 99.1997H7.07996V106.29H14.17V99.1997Z" fill="white"/>
<path d="M14.17 106.28H7.07996V113.37H14.17V106.28Z" fill="white"/>
<path d="M14.17 120.45H7.07996V127.54H14.17V120.45Z" fill="white"/>
<path d="M21.2601 63.7695H14.17V70.8596H21.2601V63.7695Z" fill="white"/>
<path d="M21.2601 92.1099H14.17V99.1999H21.2601V92.1099Z" fill="white"/>
<path d="M21.2601 106.28H14.17V113.37H21.2601V106.28Z" fill="white"/>
<path d="M21.2601 127.54H14.17V134.63H21.2601V127.54Z" fill="white"/>
<path d="M21.2601 134.62H14.17V141.71H21.2601V134.62Z" fill="white"/>
<path d="M28.34 63.7695H21.25V70.8596H28.34V63.7695Z" fill="white"/>
<path d="M28.34 85.0298H21.25V92.1198H28.34V85.0298Z" fill="white"/>
<path d="M28.34 113.37H21.25V120.46H28.34V113.37Z" fill="white"/>
<path d="M28.34 120.45H21.25V127.54H28.34V120.45Z" fill="white"/>
<path d="M28.34 134.62H21.25V141.71H28.34V134.62Z" fill="white"/>
<path d="M28.34 141.71H21.25V148.8H28.34V141.71Z" fill="white"/>
<path d="M35.43 63.7695H28.34V70.8596H35.43V63.7695Z" fill="white"/>
<path d="M35.43 70.8599H28.34V77.9499H35.43V70.8599Z" fill="white"/>
<path d="M35.43 77.9399H28.34V85.0299H35.43V77.9399Z" fill="white"/>
<path d="M35.43 85.0298H28.34V92.1198H35.43V85.0298Z" fill="white"/>
<path d="M35.43 113.37H28.34V120.46H35.43V113.37Z" fill="white"/>
<path d="M35.43 127.54H28.34V134.63H35.43V127.54Z" fill="white"/>
<path d="M35.43 134.62H28.34V141.71H35.43V134.62Z" fill="white"/>
<path d="M42.5101 63.7695H35.42V70.8596H42.5101V63.7695Z" fill="white"/>
<path d="M42.5101 70.8599H35.42V77.9499H42.5101V70.8599Z" fill="white"/>
<path d="M42.5101 99.1997H35.42V106.29H42.5101V99.1997Z" fill="white"/>
<path d="M42.5101 120.45H35.42V127.54H42.5101V120.45Z" fill="white"/>
<path d="M49.6 56.6899H42.51V63.7799H49.6V56.6899Z" fill="white"/>
<path d="M49.6 70.8599H42.51V77.9499H49.6V70.8599Z" fill="white"/>
<path d="M49.6 85.0298H42.51V92.1198H49.6V85.0298Z" fill="white"/>
<path d="M49.6 99.1997H42.51V106.29H49.6V99.1997Z" fill="white"/>
<path d="M49.6 113.37H42.51V120.46H49.6V113.37Z" fill="white"/>
<path d="M49.6 127.54H42.51V134.63H49.6V127.54Z" fill="white"/>
<path d="M49.6 141.71H42.51V148.8H49.6V141.71Z" fill="white"/>
<path d="M56.68 77.9399H49.59V85.0299H56.68V77.9399Z" fill="white"/>
<path d="M56.68 85.0298H49.59V92.1198H56.68V85.0298Z" fill="white"/>
<path d="M56.68 113.37H49.59V120.46H56.68V113.37Z" fill="white"/>
<path d="M56.68 134.62H49.59V141.71H56.68V134.62Z" fill="white"/>
<path d="M63.7701 7.08984H56.6801V14.1799H63.7701V7.08984Z" fill="white"/>
<path d="M63.7701 42.5195H56.6801V49.6096H63.7701V42.5195Z" fill="white"/>
<path d="M63.7701 49.5996H56.6801V56.6896H63.7701V49.5996Z" fill="white"/>
<path d="M63.7701 56.6899H56.6801V63.7799H63.7701V56.6899Z" fill="white"/>
<path d="M63.7701 63.7695H56.6801V70.8596H63.7701V63.7695Z" fill="white"/>
<path d="M63.7701 77.9399H56.6801V85.0299H63.7701V77.9399Z" fill="white"/>
<path d="M63.7701 113.37H56.6801V120.46H63.7701V113.37Z" fill="white"/>
<path d="M63.7701 120.45H56.6801V127.54H63.7701V120.45Z" fill="white"/>
<path d="M63.7701 141.71H56.6801V148.8H63.7701V141.71Z" fill="white"/>
<path d="M63.7701 148.79H56.6801V155.88H63.7701V148.79Z" fill="white"/>
<path d="M63.7701 191.31H56.6801V198.4H63.7701V191.31Z" fill="white"/>
<path d="M63.7701 198.39H56.6801V205.48H63.7701V198.39Z" fill="white"/>
<path d="M70.85 7.08984H63.76V14.1799H70.85V7.08984Z" fill="white"/>
<path d="M70.85 14.1699H63.76V21.2599H70.85V14.1699Z" fill="white"/>
<path d="M70.85 21.2598H63.76V28.3497H70.85V21.2598Z" fill="white"/>
<path d="M70.85 35.4297H63.76V42.5197H70.85V35.4297Z" fill="white"/>
<path d="M70.85 49.5996H63.76V56.6896H70.85V49.5996Z" fill="white"/>
<path d="M70.85 56.6899H63.76V63.7799H70.85V56.6899Z" fill="white"/>
<path d="M70.85 70.8599H63.76V77.9499H70.85V70.8599Z" fill="white"/>
<path d="M70.85 99.1997H63.76V106.29H70.85V99.1997Z" fill="white"/>
<path d="M70.85 113.37H63.76V120.46H70.85V113.37Z" fill="white"/>
<path d="M70.85 120.45H63.76V127.54H70.85V120.45Z" fill="white"/>
<path d="M70.85 127.54H63.76V134.63H70.85V127.54Z" fill="white"/>
<path d="M70.85 134.62H63.76V141.71H70.85V134.62Z" fill="white"/>
<path d="M70.85 162.97H63.76V170.06H70.85V162.97Z" fill="white"/>
<path d="M70.85 170.05H63.76V177.14H70.85V170.05Z" fill="white"/>
<path d="M70.85 184.22H63.76V191.31H70.85V184.22Z" fill="white"/>
<path d="M70.85 191.31H63.76V198.4H70.85V191.31Z" fill="white"/>
<path d="M77.94 21.2598H70.85V28.3497H77.94V21.2598Z" fill="white"/>
<path d="M77.94 28.3398H70.85V35.4299H77.94V28.3398Z" fill="white"/>
<path d="M77.94 35.4297H70.85V42.5197H77.94V35.4297Z" fill="white"/>
<path d="M77.94 42.5195H70.85V49.6096H77.94V42.5195Z" fill="white"/>
<path d="M77.94 85.0298H70.85V92.1198H77.94V85.0298Z" fill="white"/>
<path d="M77.94 92.1099H70.85V99.1999H77.94V92.1099Z" fill="white"/>
<path d="M77.94 106.28H70.85V113.37H77.94V106.28Z" fill="white"/>
<path d="M77.94 141.71H70.85V148.8H77.94V141.71Z" fill="white"/>
<path d="M77.94 148.79H70.85V155.88H77.94V148.79Z" fill="white"/>
<path d="M77.94 155.88H70.85V162.97H77.94V155.88Z" fill="white"/>
<path d="M77.94 162.97H70.85V170.06H77.94V162.97Z" fill="white"/>
<path d="M77.94 170.05H70.85V177.14H77.94V170.05Z" fill="white"/>
<path d="M77.94 177.14H70.85V184.23H77.94V177.14Z" fill="white"/>
<path d="M77.94 184.22H70.85V191.31H77.94V184.22Z" fill="white"/>
<path d="M85.0201 35.4297H77.9301V42.5197H85.0201V35.4297Z" fill="white"/>
<path d="M85.0201 56.6899H77.9301V63.7799H85.0201V56.6899Z" fill="white"/>
<path d="M85.0201 70.8599H77.9301V77.9499H85.0201V70.8599Z" fill="white"/>
<path d="M85.0201 77.9399H77.9301V85.0299H85.0201V77.9399Z" fill="white"/>
<path d="M85.0201 99.1997H77.9301V106.29H85.0201V99.1997Z" fill="white"/>
<path d="M85.0201 141.71H77.9301V148.8H85.0201V141.71Z" fill="white"/>
<path d="M85.0201 155.88H77.9301V162.97H85.0201V155.88Z" fill="white"/>
<path d="M85.0201 170.05H77.9301V177.14H85.0201V170.05Z" fill="white"/>
<path d="M85.0201 177.14H77.9301V184.23H85.0201V177.14Z" fill="white"/>
<path d="M92.11 0H85.02V7.08997H92.11V0Z" fill="white"/>
<path d="M92.11 14.1699H85.02V21.2599H92.11V14.1699Z" fill="white"/>
<path d="M92.11 21.2598H85.02V28.3497H92.11V21.2598Z" fill="white"/>
<path d="M92.11 28.3398H85.02V35.4299H92.11V28.3398Z" fill="white"/>
<path d="M92.11 42.5195H85.02V49.6096H92.11V42.5195Z" fill="white"/>
<path d="M92.11 49.5996H85.02V56.6896H92.11V49.5996Z" fill="white"/>
<path d="M92.11 63.7695H85.02V70.8596H92.11V63.7695Z" fill="white"/>
<path d="M92.11 99.1997H85.02V106.29H92.11V99.1997Z" fill="white"/>
<path d="M92.11 113.37H85.02V120.46H92.11V113.37Z" fill="white"/>
<path d="M92.11 134.62H85.02V141.71H92.11V134.62Z" fill="white"/>
<path d="M92.11 148.79H85.02V155.88H92.11V148.79Z" fill="white"/>
<path d="M92.11 155.88H85.02V162.97H92.11V155.88Z" fill="white"/>
<path d="M92.11 177.14H85.02V184.23H92.11V177.14Z" fill="white"/>
<path d="M92.11 191.31H85.02V198.4H92.11V191.31Z" fill="white"/>
<path d="M99.2 14.1699H92.11V21.2599H99.2V14.1699Z" fill="white"/>
<path d="M99.2 49.5996H92.11V56.6896H99.2V49.5996Z" fill="white"/>
<path d="M99.2 63.7695H92.11V70.8596H99.2V63.7695Z" fill="white"/>
<path d="M99.2 77.9399H92.11V85.0299H99.2V77.9399Z" fill="white"/>
<path d="M99.2 85.0298H92.11V92.1198H99.2V85.0298Z" fill="white"/>
<path d="M99.2 92.1099H92.11V99.1999H99.2V92.1099Z" fill="white"/>
<path d="M99.2 99.1997H92.11V106.29H99.2V99.1997Z" fill="white"/>
<path d="M99.2 113.37H92.11V120.46H99.2V113.37Z" fill="white"/>
<path d="M99.2 120.45H92.11V127.54H99.2V120.45Z" fill="white"/>
<path d="M99.2 127.54H92.11V134.63H99.2V127.54Z" fill="white"/>
<path d="M99.2 134.62H92.11V141.71H99.2V134.62Z" fill="white"/>
<path d="M99.2 141.71H92.11V148.8H99.2V141.71Z" fill="white"/>
<path d="M99.2 155.88H92.11V162.97H99.2V155.88Z" fill="white"/>
<path d="M99.2 170.05H92.11V177.14H99.2V170.05Z" fill="white"/>
<path d="M99.2 177.14H92.11V184.23H99.2V177.14Z" fill="white"/>
<path d="M99.2 198.39H92.11V205.48H99.2V198.39Z" fill="white"/>
<path d="M106.28 0H99.1901V7.08997H106.28V0Z" fill="white"/>
<path d="M106.28 14.1699H99.1901V21.2599H106.28V14.1699Z" fill="white"/>
<path d="M106.28 35.4297H99.1901V42.5197H106.28V35.4297Z" fill="white"/>
<path d="M106.28 42.5195H99.1901V49.6096H106.28V42.5195Z" fill="white"/>
<path d="M106.28 49.5996H99.1901V56.6896H106.28V49.5996Z" fill="white"/>
<path d="M106.28 56.6899H99.1901V63.7799H106.28V56.6899Z" fill="white"/>
<path d="M106.28 85.0298H99.1901V92.1198H106.28V85.0298Z" fill="white"/>
<path d="M106.28 106.28H99.1901V113.37H106.28V106.28Z" fill="white"/>
<path d="M106.28 120.45H99.1901V127.54H106.28V120.45Z" fill="white"/>
<path d="M106.28 141.71H99.1901V148.8H106.28V141.71Z" fill="white"/>
<path d="M106.28 162.97H99.1901V170.06H106.28V162.97Z" fill="white"/>
<path d="M113.37 14.1699H106.28V21.2599H113.37V14.1699Z" fill="white"/>
<path d="M113.37 21.2598H106.28V28.3497H113.37V21.2598Z" fill="white"/>
<path d="M113.37 28.3398H106.28V35.4299H113.37V28.3398Z" fill="white"/>
<path d="M113.37 49.5996H106.28V56.6896H113.37V49.5996Z" fill="white"/>
<path d="M113.37 77.9399H106.28V85.0299H113.37V77.9399Z" fill="white"/>
<path d="M113.37 85.0298H106.28V92.1198H113.37V85.0298Z" fill="white"/>
<path d="M113.37 92.1099H106.28V99.1999H113.37V92.1099Z" fill="white"/>
<path d="M113.37 106.28H106.28V113.37H113.37V106.28Z" fill="white"/>
<path d="M113.37 113.37H106.28V120.46H113.37V113.37Z" fill="white"/>
<path d="M113.37 127.54H106.28V134.63H113.37V127.54Z" fill="white"/>
<path d="M113.37 141.71H106.28V148.8H113.37V141.71Z" fill="white"/>
<path d="M113.37 155.88H106.28V162.97H113.37V155.88Z" fill="white"/>
<path d="M113.37 170.05H106.28V177.14H113.37V170.05Z" fill="white"/>
<path d="M113.37 177.14H106.28V184.23H113.37V177.14Z" fill="white"/>
<path d="M113.37 184.22H106.28V191.31H113.37V184.22Z" fill="white"/>
<path d="M120.45 7.08984H113.36V14.1799H120.45V7.08984Z" fill="white"/>
<path d="M120.45 14.1699H113.36V21.2599H120.45V14.1699Z" fill="white"/>
<path d="M120.45 42.5195H113.36V49.6096H120.45V42.5195Z" fill="white"/>
<path d="M120.45 49.5996H113.36V56.6896H120.45V49.5996Z" fill="white"/>
<path d="M120.45 56.6899H113.36V63.7799H120.45V56.6899Z" fill="white"/>
<path d="M120.45 63.7695H113.36V70.8596H120.45V63.7695Z" fill="white"/>
<path d="M120.45 70.8599H113.36V77.9499H120.45V70.8599Z" fill="white"/>
<path d="M120.45 92.1099H113.36V99.1999H120.45V92.1099Z" fill="white"/>
<path d="M120.45 127.54H113.36V134.63H120.45V127.54Z" fill="white"/>
<path d="M120.45 141.71H113.36V148.8H120.45V141.71Z" fill="white"/>
<path d="M120.45 162.97H113.36V170.06H120.45V162.97Z" fill="white"/>
<path d="M120.45 177.14H113.36V184.23H120.45V177.14Z" fill="white"/>
<path d="M120.45 184.22H113.36V191.31H120.45V184.22Z" fill="white"/>
<path d="M120.45 198.39H113.36V205.48H120.45V198.39Z" fill="white"/>
<path d="M127.54 0H120.45V7.08997H127.54V0Z" fill="white"/>
<path d="M127.54 14.1699H120.45V21.2599H127.54V14.1699Z" fill="white"/>
<path d="M127.54 56.6899H120.45V63.7799H127.54V56.6899Z" fill="white"/>
<path d="M127.54 63.7695H120.45V70.8596H127.54V63.7695Z" fill="white"/>
<path d="M127.54 113.37H120.45V120.46H127.54V113.37Z" fill="white"/>
<path d="M127.54 127.54H120.45V134.63H127.54V127.54Z" fill="white"/>
<path d="M127.54 141.71H120.45V148.8H127.54V141.71Z" fill="white"/>
<path d="M127.54 162.97H120.45V170.06H127.54V162.97Z" fill="white"/>
<path d="M127.54 170.05H120.45V177.14H127.54V170.05Z" fill="white"/>
<path d="M127.54 177.14H120.45V184.23H127.54V177.14Z" fill="white"/>
<path d="M127.54 184.22H120.45V191.31H127.54V184.22Z" fill="white"/>
<path d="M127.54 198.39H120.45V205.48H127.54V198.39Z" fill="white"/>
<path d="M134.62 0H127.53V7.08997H134.62V0Z" fill="white"/>
<path d="M134.62 7.08984H127.53V14.1799H134.62V7.08984Z" fill="white"/>
<path d="M134.62 14.1699H127.53V21.2599H134.62V14.1699Z" fill="white"/>
<path d="M134.62 35.4297H127.53V42.5197H134.62V35.4297Z" fill="white"/>
<path d="M134.62 42.5195H127.53V49.6096H134.62V42.5195Z" fill="white"/>
<path d="M134.62 56.6899H127.53V63.7799H134.62V56.6899Z" fill="white"/>
<path d="M134.62 77.9399H127.53V85.0299H134.62V77.9399Z" fill="white"/>
<path d="M134.62 85.0298H127.53V92.1198H134.62V85.0298Z" fill="white"/>
<path d="M134.62 99.1997H127.53V106.29H134.62V99.1997Z" fill="white"/>
<path d="M134.62 113.37H127.53V120.46H134.62V113.37Z" fill="white"/>
<path d="M134.62 120.45H127.53V127.54H134.62V120.45Z" fill="white"/>
<path d="M134.62 134.62H127.53V141.71H134.62V134.62Z" fill="white"/>
<path d="M134.62 198.39H127.53V205.48H134.62V198.39Z" fill="white"/>
<path d="M141.71 0H134.62V7.08997H141.71V0Z" fill="white"/>
<path d="M141.71 14.1699H134.62V21.2599H141.71V14.1699Z" fill="white"/>
<path d="M141.71 21.2598H134.62V28.3497H141.71V21.2598Z" fill="white"/>
<path d="M141.71 28.3398H134.62V35.4299H141.71V28.3398Z" fill="white"/>
<path d="M141.71 35.4297H134.62V42.5197H141.71V35.4297Z" fill="white"/>
<path d="M141.71 70.8599H134.62V77.9499H141.71V70.8599Z" fill="white"/>
<path d="M141.71 77.9399H134.62V85.0299H141.71V77.9399Z" fill="white"/>
<path d="M141.71 92.1099H134.62V99.1999H141.71V92.1099Z" fill="white"/>
<path d="M141.71 99.1997H134.62V106.29H141.71V99.1997Z" fill="white"/>
<path d="M141.71 106.28H134.62V113.37H141.71V106.28Z" fill="white"/>
<path d="M141.71 113.37H134.62V120.46H141.71V113.37Z" fill="white"/>
<path d="M141.71 148.79H134.62V155.88H141.71V148.79Z" fill="white"/>
<path d="M141.71 155.88H134.62V162.97H141.71V155.88Z" fill="white"/>
<path d="M141.71 162.97H134.62V170.06H141.71V162.97Z" fill="white"/>
<path d="M141.71 177.14H134.62V184.23H141.71V177.14Z" fill="white"/>
<path d="M141.71 191.31H134.62V198.4H141.71V191.31Z" fill="white"/>
<path d="M148.79 0H141.7V7.08997H148.79V0Z" fill="white"/>
<path d="M148.79 35.4297H141.7V42.5197H148.79V35.4297Z" fill="white"/>
<path d="M148.79 42.5195H141.7V49.6096H148.79V42.5195Z" fill="white"/>
<path d="M148.79 70.8599H141.7V77.9499H148.79V70.8599Z" fill="white"/>
<path d="M148.79 77.9399H141.7V85.0299H148.79V77.9399Z" fill="white"/>
<path d="M148.79 85.0298H141.7V92.1198H148.79V85.0298Z" fill="white"/>
<path d="M148.79 113.37H141.7V120.46H148.79V113.37Z" fill="white"/>
<path d="M148.79 120.45H141.7V127.54H148.79V120.45Z" fill="white"/>
<path d="M148.79 127.54H141.7V134.63H148.79V127.54Z" fill="white"/>
<path d="M148.79 141.71H141.7V148.8H148.79V141.71Z" fill="white"/>
<path d="M148.79 148.79H141.7V155.88H148.79V148.79Z" fill="white"/>
<path d="M148.79 155.88H141.7V162.97H148.79V155.88Z" fill="white"/>
<path d="M148.79 162.97H141.7V170.06H148.79V162.97Z" fill="white"/>
<path d="M148.79 170.05H141.7V177.14H148.79V170.05Z" fill="white"/>
<path d="M148.79 184.22H141.7V191.31H148.79V184.22Z" fill="white"/>
<path d="M148.79 198.39H141.7V205.48H148.79V198.39Z" fill="white"/>
<path d="M155.88 56.6899H148.79V63.7799H155.88V56.6899Z" fill="white"/>
<path d="M155.88 106.28H148.79V113.37H155.88V106.28Z" fill="white"/>
<path d="M155.88 120.45H148.79V127.54H155.88V120.45Z" fill="white"/>
<path d="M155.88 127.54H148.79V134.63H155.88V127.54Z" fill="white"/>
<path d="M155.88 134.62H148.79V141.71H155.88V134.62Z" fill="white"/>
<path d="M155.88 141.71H148.79V148.8H155.88V141.71Z" fill="white"/>
<path d="M155.88 170.05H148.79V177.14H155.88V170.05Z" fill="white"/>
<path d="M155.88 177.14H148.79V184.23H155.88V177.14Z" fill="white"/>
<path d="M155.88 184.22H148.79V191.31H155.88V184.22Z" fill="white"/>
<path d="M162.96 56.6899H155.87V63.7799H162.96V56.6899Z" fill="white"/>
<path d="M162.96 77.9399H155.87V85.0299H162.96V77.9399Z" fill="white"/>
<path d="M162.96 85.0298H155.87V92.1198H162.96V85.0298Z" fill="white"/>
<path d="M162.96 92.1099H155.87V99.1999H162.96V92.1099Z" fill="white"/>
<path d="M162.96 106.28H155.87V113.37H162.96V106.28Z" fill="white"/>
<path d="M162.96 113.37H155.87V120.46H162.96V113.37Z" fill="white"/>
<path d="M162.96 120.45H155.87V127.54H162.96V120.45Z" fill="white"/>
<path d="M162.96 134.62H155.87V141.71H162.96V134.62Z" fill="white"/>
<path d="M162.96 141.71H155.87V148.8H162.96V141.71Z" fill="white"/>
<path d="M162.96 155.88H155.87V162.97H162.96V155.88Z" fill="white"/>
<path d="M162.96 170.05H155.87V177.14H162.96V170.05Z" fill="white"/>
<path d="M162.96 191.31H155.87V198.4H162.96V191.31Z" fill="white"/>
<path d="M170.05 63.7695H162.96V70.8596H170.05V63.7695Z" fill="white"/>
<path d="M170.05 70.8599H162.96V77.9499H170.05V70.8599Z" fill="white"/>
<path d="M170.05 77.9399H162.96V85.0299H170.05V77.9399Z" fill="white"/>
<path d="M170.05 92.1099H162.96V99.1999H170.05V92.1099Z" fill="white"/>
<path d="M170.05 99.1997H162.96V106.29H170.05V99.1997Z" fill="white"/>
<path d="M170.05 120.45H162.96V127.54H170.05V120.45Z" fill="white"/>
<path d="M170.05 127.54H162.96V134.63H170.05V127.54Z" fill="white"/>
<path d="M170.05 134.62H162.96V141.71H170.05V134.62Z" fill="white"/>
<path d="M170.05 141.71H162.96V148.8H170.05V141.71Z" fill="white"/>
<path d="M170.05 170.05H162.96V177.14H170.05V170.05Z" fill="white"/>
<path d="M170.05 177.14H162.96V184.23H170.05V177.14Z" fill="white"/>
<path d="M170.05 198.39H162.96V205.48H170.05V198.39Z" fill="white"/>
<path d="M177.13 63.7695H170.04V70.8596H177.13V63.7695Z" fill="white"/>
<path d="M177.13 70.8599H170.04V77.9499H177.13V70.8599Z" fill="white"/>
<path d="M177.13 99.1997H170.04V106.29H177.13V99.1997Z" fill="white"/>
<path d="M177.13 106.28H170.04V113.37H177.13V106.28Z" fill="white"/>
<path d="M177.13 120.45H170.04V127.54H177.13V120.45Z" fill="white"/>
<path d="M177.13 134.62H170.04V141.71H177.13V134.62Z" fill="white"/>
<path d="M177.13 141.71H170.04V148.8H177.13V141.71Z" fill="white"/>
<path d="M177.13 148.79H170.04V155.88H177.13V148.79Z" fill="white"/>
<path d="M177.13 155.88H170.04V162.97H177.13V155.88Z" fill="white"/>
<path d="M177.13 162.97H170.04V170.06H177.13V162.97Z" fill="white"/>
<path d="M177.13 170.05H170.04V177.14H177.13V170.05Z" fill="white"/>
<path d="M177.13 191.31H170.04V198.4H177.13V191.31Z" fill="white"/>
<path d="M177.13 198.39H170.04V205.48H177.13V198.39Z" fill="white"/>
<path d="M184.22 63.7695H177.13V70.8596H184.22V63.7695Z" fill="white"/>
<path d="M184.22 92.1099H177.13V99.1999H184.22V92.1099Z" fill="white"/>
<path d="M184.22 99.1997H177.13V106.29H184.22V99.1997Z" fill="white"/>
<path d="M184.22 120.45H177.13V127.54H184.22V120.45Z" fill="white"/>
<path d="M184.22 127.54H177.13V134.63H184.22V127.54Z" fill="white"/>
<path d="M184.22 134.62H177.13V141.71H184.22V134.62Z" fill="white"/>
<path d="M184.22 141.71H177.13V148.8H184.22V141.71Z" fill="white"/>
<path d="M184.22 162.97H177.13V170.06H184.22V162.97Z" fill="white"/>
<path d="M184.22 177.14H177.13V184.23H184.22V177.14Z" fill="white"/>
<path d="M184.22 184.22H177.13V191.31H184.22V184.22Z" fill="white"/>
<path d="M184.22 191.31H177.13V198.4H184.22V191.31Z" fill="white"/>
<path d="M191.3 63.7695H184.21V70.8596H191.3V63.7695Z" fill="white"/>
<path d="M191.3 70.8599H184.21V77.9499H191.3V70.8599Z" fill="white"/>
<path d="M191.3 85.0298H184.21V92.1198H191.3V85.0298Z" fill="white"/>
<path d="M191.3 92.1099H184.21V99.1999H191.3V92.1099Z" fill="white"/>
<path d="M191.3 106.28H184.21V113.37H191.3V106.28Z" fill="white"/>
<path d="M191.3 113.37H184.21V120.46H191.3V113.37Z" fill="white"/>
<path d="M191.3 134.62H184.21V141.71H191.3V134.62Z" fill="white"/>
<path d="M191.3 141.71H184.21V148.8H191.3V141.71Z" fill="white"/>
<path d="M191.3 148.79H184.21V155.88H191.3V148.79Z" fill="white"/>
<path d="M191.3 155.88H184.21V162.97H191.3V155.88Z" fill="white"/>
<path d="M191.3 162.97H184.21V170.06H191.3V162.97Z" fill="white"/>
<path d="M191.3 170.05H184.21V177.14H191.3V170.05Z" fill="white"/>
<path d="M191.3 177.14H184.21V184.23H191.3V177.14Z" fill="white"/>
<path d="M191.3 191.31H184.21V198.4H191.3V191.31Z" fill="white"/>
<path d="M198.39 56.6899H191.3V63.7799H198.39V56.6899Z" fill="white"/>
<path d="M198.39 63.7695H191.3V70.8596H198.39V63.7695Z" fill="white"/>
<path d="M198.39 85.0298H191.3V92.1198H198.39V85.0298Z" fill="white"/>
<path d="M198.39 113.37H191.3V120.46H198.39V113.37Z" fill="white"/>
<path d="M198.39 134.62H191.3V141.71H198.39V134.62Z" fill="white"/>
<path d="M198.39 141.71H191.3V148.8H198.39V141.71Z" fill="white"/>
<path d="M198.39 170.05H191.3V177.14H198.39V170.05Z" fill="white"/>
<path d="M198.39 184.22H191.3V191.31H198.39V184.22Z" fill="white"/>
<path d="M198.39 198.39H191.3V205.48H198.39V198.39Z" fill="white"/>
<path d="M205.47 63.7695H198.38V70.8596H205.47V63.7695Z" fill="white"/>
<path d="M205.47 70.8599H198.38V77.9499H205.47V70.8599Z" fill="white"/>
<path d="M205.47 77.9399H198.38V85.0299H205.47V77.9399Z" fill="white"/>
<path d="M205.47 106.28H198.38V113.37H205.47V106.28Z" fill="white"/>
<path d="M205.47 113.37H198.38V120.46H205.47V113.37Z" fill="white"/>
<path d="M205.47 120.45H198.38V127.54H205.47V120.45Z" fill="white"/>
<path d="M205.47 134.62H198.38V141.71H205.47V134.62Z" fill="white"/>
<path d="M205.47 148.79H198.38V155.88H205.47V148.79Z" fill="white"/>
<path d="M205.47 155.88H198.38V162.97H205.47V155.88Z" fill="white"/>
<path d="M205.47 170.05H198.38V177.14H205.47V170.05Z" fill="white"/>
<path d="M205.47 184.22H198.38V191.31H205.47V184.22Z" fill="white"/>
<path d="M7.09001 0H0V7.08997H7.09001V0Z" fill="white"/>
<path d="M7.09001 7.08984H0V14.1799H7.09001V7.08984Z" fill="white"/>
<path d="M7.09001 14.1699H0V21.2599H7.09001V14.1699Z" fill="white"/>
<path d="M7.09001 21.2598H0V28.3497H7.09001V21.2598Z" fill="white"/>
<path d="M7.09001 28.3398H0V35.4299H7.09001V28.3398Z" fill="white"/>
<path d="M7.09001 35.4297H0V42.5197H7.09001V35.4297Z" fill="white"/>
<path d="M7.09001 42.5195H0V49.6096H7.09001V42.5195Z" fill="white"/>
<path d="M14.17 0H7.07996V7.08997H14.17V0Z" fill="white"/>
<path d="M14.17 42.5195H7.07996V49.6096H14.17V42.5195Z" fill="white"/>
<path d="M21.2601 0H14.17V7.08997H21.2601V0Z" fill="white"/>
<path d="M21.2601 42.5195H14.17V49.6096H21.2601V42.5195Z" fill="white"/>
<path d="M28.34 0H21.25V7.08997H28.34V0Z" fill="white"/>
<path d="M28.34 42.5195H21.25V49.6096H28.34V42.5195Z" fill="white"/>
<path d="M35.43 0H28.34V7.08997H35.43V0Z" fill="white"/>
<path d="M35.43 42.5195H28.34V49.6096H35.43V42.5195Z" fill="white"/>
<path d="M42.5101 0H35.42V7.08997H42.5101V0Z" fill="white"/>
<path d="M42.5101 42.5195H35.42V49.6096H42.5101V42.5195Z" fill="white"/>
<path d="M49.6 0H42.51V7.08997H49.6V0Z" fill="white"/>
<path d="M49.6 7.08984H42.51V14.1799H49.6V7.08984Z" fill="white"/>
<path d="M49.6 14.1699H42.51V21.2599H49.6V14.1699Z" fill="white"/>
<path d="M49.6 21.2598H42.51V28.3497H49.6V21.2598Z" fill="white"/>
<path d="M49.6 28.3398H42.51V35.4299H49.6V28.3398Z" fill="white"/>
<path d="M49.6 35.4297H42.51V42.5197H49.6V35.4297Z" fill="white"/>
<path d="M49.6 42.5195H42.51V49.6096H49.6V42.5195Z" fill="white"/>
<path d="M21.2601 14.1699H14.17V21.2599H21.2601V14.1699Z" fill="white"/>
<path d="M21.2601 21.2598H14.17V28.3497H21.2601V21.2598Z" fill="white"/>
<path d="M21.2601 28.3398H14.17V35.4299H21.2601V28.3398Z" fill="white"/>
<path d="M28.34 14.1699H21.25V21.2599H28.34V14.1699Z" fill="white"/>
<path d="M28.34 21.2598H21.25V28.3497H28.34V21.2598Z" fill="white"/>
<path d="M28.34 28.3398H21.25V35.4299H28.34V28.3398Z" fill="white"/>
<path d="M35.43 14.1699H28.34V21.2599H35.43V14.1699Z" fill="white"/>
<path d="M35.43 21.2598H28.34V28.3497H35.43V21.2598Z" fill="white"/>
<path d="M35.43 28.3398H28.34V35.4299H35.43V28.3398Z" fill="white"/>
<path d="M162.96 0H155.87V7.08997H162.96V0Z" fill="white"/>
<path d="M162.96 7.08984H155.87V14.1799H162.96V7.08984Z" fill="white"/>
<path d="M162.96 14.1699H155.87V21.2599H162.96V14.1699Z" fill="white"/>
<path d="M162.96 21.2598H155.87V28.3497H162.96V21.2598Z" fill="white"/>
<path d="M162.96 28.3398H155.87V35.4299H162.96V28.3398Z" fill="white"/>
<path d="M162.96 35.4297H155.87V42.5197H162.96V35.4297Z" fill="white"/>
<path d="M162.96 42.5195H155.87V49.6096H162.96V42.5195Z" fill="white"/>
<path d="M170.05 0H162.96V7.08997H170.05V0Z" fill="white"/>
<path d="M170.05 42.5195H162.96V49.6096H170.05V42.5195Z" fill="white"/>
<path d="M177.13 0H170.04V7.08997H177.13V0Z" fill="white"/>
<path d="M177.13 42.5195H170.04V49.6096H177.13V42.5195Z" fill="white"/>
<path d="M184.22 0H177.13V7.08997H184.22V0Z" fill="white"/>
<path d="M184.22 42.5195H177.13V49.6096H184.22V42.5195Z" fill="white"/>
<path d="M191.3 0H184.21V7.08997H191.3V0Z" fill="white"/>
<path d="M191.3 42.5195H184.21V49.6096H191.3V42.5195Z" fill="white"/>
<path d="M198.39 0H191.3V7.08997H198.39V0Z" fill="white"/>
<path d="M198.39 42.5195H191.3V49.6096H198.39V42.5195Z" fill="white"/>
<path d="M205.47 0H198.38V7.08997H205.47V0Z" fill="white"/>
<path d="M205.47 7.08984H198.38V14.1799H205.47V7.08984Z" fill="white"/>
<path d="M205.47 14.1699H198.38V21.2599H205.47V14.1699Z" fill="white"/>
<path d="M205.47 21.2598H198.38V28.3497H205.47V21.2598Z" fill="white"/>
<path d="M205.47 28.3398H198.38V35.4299H205.47V28.3398Z" fill="white"/>
<path d="M205.47 35.4297H198.38V42.5197H205.47V35.4297Z" fill="white"/>
<path d="M205.47 42.5195H198.38V49.6096H205.47V42.5195Z" fill="white"/>
<path d="M177.13 14.1699H170.04V21.2599H177.13V14.1699Z" fill="white"/>
<path d="M177.13 21.2598H170.04V28.3497H177.13V21.2598Z" fill="white"/>
<path d="M177.13 28.3398H170.04V35.4299H177.13V28.3398Z" fill="white"/>
<path d="M184.22 14.1699H177.13V21.2599H184.22V14.1699Z" fill="white"/>
<path d="M184.22 21.2598H177.13V28.3497H184.22V21.2598Z" fill="white"/>
<path d="M184.22 28.3398H177.13V35.4299H184.22V28.3398Z" fill="white"/>
<path d="M191.3 14.1699H184.21V21.2599H191.3V14.1699Z" fill="white"/>
<path d="M191.3 21.2598H184.21V28.3497H191.3V21.2598Z" fill="white"/>
<path d="M191.3 28.3398H184.21V35.4299H191.3V28.3398Z" fill="white"/>
<path d="M7.09001 155.88H0V162.97H7.09001V155.88Z" fill="white"/>
<path d="M7.09001 162.97H0V170.06H7.09001V162.97Z" fill="white"/>
<path d="M7.09001 170.05H0V177.14H7.09001V170.05Z" fill="white"/>
<path d="M7.09001 177.14H0V184.23H7.09001V177.14Z" fill="white"/>
<path d="M7.09001 184.22H0V191.31H7.09001V184.22Z" fill="white"/>
<path d="M7.09001 191.31H0V198.4H7.09001V191.31Z" fill="white"/>
<path d="M7.09001 198.39H0V205.48H7.09001V198.39Z" fill="white"/>
<path d="M14.17 155.88H7.07996V162.97H14.17V155.88Z" fill="white"/>
<path d="M14.17 198.39H7.07996V205.48H14.17V198.39Z" fill="white"/>
<path d="M21.2601 155.88H14.17V162.97H21.2601V155.88Z" fill="white"/>
<path d="M21.2601 198.39H14.17V205.48H21.2601V198.39Z" fill="white"/>
<path d="M28.34 155.88H21.25V162.97H28.34V155.88Z" fill="white"/>
<path d="M28.34 198.39H21.25V205.48H28.34V198.39Z" fill="white"/>
<path d="M35.43 155.88H28.34V162.97H35.43V155.88Z" fill="white"/>
<path d="M35.43 198.39H28.34V205.48H35.43V198.39Z" fill="white"/>
<path d="M42.5101 155.88H35.42V162.97H42.5101V155.88Z" fill="white"/>
<path d="M42.5101 198.39H35.42V205.48H42.5101V198.39Z" fill="white"/>
<path d="M49.6 155.88H42.51V162.97H49.6V155.88Z" fill="white"/>
<path d="M49.6 162.97H42.51V170.06H49.6V162.97Z" fill="white"/>
<path d="M49.6 170.05H42.51V177.14H49.6V170.05Z" fill="white"/>
<path d="M49.6 177.14H42.51V184.23H49.6V177.14Z" fill="white"/>
<path d="M49.6 184.22H42.51V191.31H49.6V184.22Z" fill="white"/>
<path d="M49.6 191.31H42.51V198.4H49.6V191.31Z" fill="white"/>
<path d="M49.6 198.39H42.51V205.48H49.6V198.39Z" fill="white"/>
<path d="M21.2601 170.05H14.17V177.14H21.2601V170.05Z" fill="white"/>
<path d="M21.2601 177.14H14.17V184.23H21.2601V177.14Z" fill="white"/>
<path d="M21.2601 184.22H14.17V191.31H21.2601V184.22Z" fill="white"/>
<path d="M28.34 170.05H21.25V177.14H28.34V170.05Z" fill="white"/>
<path d="M28.34 177.14H21.25V184.23H28.34V177.14Z" fill="white"/>
<path d="M28.34 184.22H21.25V191.31H28.34V184.22Z" fill="white"/>
<path d="M35.43 170.05H28.34V177.14H35.43V170.05Z" fill="white"/>
<path d="M35.43 177.14H28.34V184.23H35.43V177.14Z" fill="white"/>
<path d="M35.43 184.22H28.34V191.31H35.43V184.22Z" fill="white"/>
</svg>
